<svg width="812" height="812" viewBox="0 0 812 812" fill="none" xmlns="http://www.w3.org/2000/svg">
<g opacity="0.3">
<path d="M164.486 1.73509H152.687L165.01 37.824H180.448L164.486 1.73509Z" fill="#6B32E5"/>
<path d="M152.163 1.73504L164.486 1.73509L152.163 37.8239H136.725L152.163 1.73504Z" fill="#6B31CC" fill-opacity="0.99"/>
<path d="M241.52 43.376H253.319L240.996 7.28711H225.558L241.52 43.376Z" fill="#6B32E5"/>
<path d="M253.843 43.3761L241.52 43.376L253.843 7.28718L269.281 7.28718L253.843 43.3761Z" fill="#6B31CC" fill-opacity="0.99"/>
<path d="M338.335 0C342.796 0 347.157 1.32286 350.866 3.8013C354.575 6.27973 357.466 9.80243 359.173 13.9239C360.88 18.0454 361.327 22.5806 360.457 26.9559C359.586 31.3313 357.438 35.3503 354.284 38.5047C351.129 41.6592 347.11 43.8074 342.735 44.6777C338.36 45.548 333.824 45.1013 329.703 43.3942C325.581 41.687 322.059 38.796 319.58 35.0867C317.102 31.3775 315.779 27.0166 315.779 22.5556V0H338.335Z" fill="#3D348B" fill-opacity="0.3"/>
<path d="M451.116 22.5556C451.116 18.0945 452.439 13.7336 454.917 10.0244C457.396 6.31513 460.918 3.42413 465.04 1.71695C469.161 0.00977397 473.697 -0.436901 478.072 0.43341C482.447 1.30372 486.466 3.45193 489.621 6.60638C492.775 9.76083 494.923 13.7798 495.794 18.1552C496.664 22.5305 496.217 27.0657 494.51 31.1872C492.803 35.3087 489.912 38.8314 486.203 41.3098C482.493 43.7883 478.133 45.1111 473.672 45.1111H451.116V22.5556Z" fill="#3D348B" fill-opacity="0.3"/>
<path d="M451.116 90.2271C457.098 90.2271 462.835 87.8507 467.065 83.6207C471.295 79.3907 473.672 73.6536 473.672 67.6715C473.672 61.6894 471.295 55.9523 467.065 51.7224C462.835 47.4924 457.098 45.116 451.116 45.116V90.2271Z" fill="#4218B7" fill-opacity="0.3"/>
<path d="M518.777 45.116C523.238 45.116 527.599 46.4389 531.308 48.9173C535.017 51.3957 537.908 54.9184 539.615 59.0399C541.322 63.1614 541.769 67.6966 540.899 72.0719C540.028 76.4473 537.88 80.4663 534.726 83.6207C531.571 86.7752 527.552 88.9234 523.177 89.7937C518.802 90.664 514.266 90.2173 510.145 88.5102C506.023 86.803 502.501 83.912 500.022 80.2027C497.544 76.4935 496.221 72.1326 496.221 67.6715V45.116H518.777Z" fill="#3D348B" fill-opacity="0.3"/>
<path d="M608.998 0C613.459 0 617.82 1.32286 621.529 3.8013C625.238 6.27973 628.129 9.80243 629.836 13.9239C631.543 18.0454 631.99 22.5806 631.12 26.9559C630.249 31.3313 628.101 35.3503 624.947 38.5047C621.792 41.6592 617.773 43.8074 613.398 44.6777C609.023 45.548 604.487 45.1013 600.366 43.3942C596.244 41.687 592.722 38.796 590.243 35.0867C587.765 31.3775 586.442 27.0166 586.442 22.5556V0H608.998Z" fill="#3D348B" fill-opacity="0.3"/>
<path d="M699.219 90.2271C694.758 90.2271 690.397 88.9042 686.687 86.4258C682.978 83.9474 680.087 80.4247 678.38 76.3032C676.673 72.1817 676.226 67.6465 677.096 63.2712C677.967 58.8958 680.115 54.8768 683.269 51.7224C686.424 48.5679 690.443 46.4197 694.818 45.5494C699.194 44.6791 703.729 45.1258 707.85 46.8329C711.972 48.5401 715.494 51.4311 717.973 55.1404C720.451 58.8496 721.774 63.2105 721.774 67.6716V90.2271H699.219Z" fill="#3D348B" fill-opacity="0.3"/>
<path d="M29.1487 91.9561H17.3504L29.6735 128.045H45.1111L29.1487 91.9561Z" fill="#6B32E5"/>
<path d="M16.8257 91.9561L29.1487 91.9561L16.8257 128.045H1.38803L16.8257 91.9561Z" fill="#6B31CC" fill-opacity="0.99"/>
<path d="M67.6716 135.332C63.2105 135.332 58.8496 134.009 55.1404 131.531C51.4311 129.052 48.5401 125.53 46.8329 121.408C45.1258 117.287 44.6791 112.752 45.5494 108.376C46.4197 104.001 48.5679 99.9818 51.7224 96.8274C54.8768 93.6729 58.8958 91.5247 63.2712 90.6544C67.6465 89.7841 72.1817 90.2308 76.3032 91.938C80.4247 93.6451 83.9474 96.5361 86.4258 100.245C88.9042 103.955 90.2271 108.316 90.2271 112.777V135.332H67.6716Z" fill="#3D348B" fill-opacity="0.3"/>
<path d="M135.332 157.893C135.332 162.354 134.009 166.715 131.531 170.424C129.052 174.133 125.53 177.024 121.408 178.731C117.287 180.438 112.752 180.885 108.376 180.015C104.001 179.144 99.9818 176.996 96.8274 173.842C93.6729 170.687 91.5247 166.668 90.6544 162.293C89.7841 157.918 90.2308 153.382 91.938 149.261C93.6451 145.139 96.5361 141.617 100.245 139.138C103.955 136.66 108.316 135.337 112.777 135.337H135.332V157.893Z" fill="#3D348B" fill-opacity="0.3"/>
<path d="M202.998 90.221C207.459 90.221 211.82 91.5439 215.529 94.0223C219.238 96.5007 222.129 100.023 223.836 104.145C225.543 108.266 225.99 112.802 225.12 117.177C224.249 121.552 222.101 125.571 218.947 128.726C215.792 131.88 211.773 134.028 207.398 134.899C203.023 135.769 198.487 135.322 194.366 133.615C190.244 131.908 186.722 129.017 184.243 125.308C181.765 121.599 180.442 117.238 180.442 112.777V90.221H202.998Z" fill="#3D348B" fill-opacity="0.3"/>
<path d="M225.558 157.893C225.558 153.431 226.881 149.071 229.359 145.361C231.838 141.652 235.36 138.761 239.482 137.054C243.603 135.347 248.139 134.9 252.514 135.77C256.889 136.641 260.908 138.789 264.063 141.943C267.217 145.098 269.365 149.117 270.236 153.492C271.106 157.868 270.659 162.403 268.952 166.524C267.245 170.646 264.354 174.168 260.645 176.647C256.936 179.125 252.575 180.448 248.114 180.448H225.558V157.893Z" fill="#3D348B" fill-opacity="0.3"/>
<path d="M360.89 90.221C354.908 90.221 349.171 92.5974 344.941 96.8274C340.711 101.057 338.335 106.794 338.335 112.777C338.335 118.759 340.711 124.496 344.941 128.726C349.171 132.956 354.908 135.332 360.89 135.332V90.221Z" fill="#4218B7" fill-opacity="0.3"/>
<path d="M360.884 157.893C360.884 153.431 362.207 149.071 364.685 145.361C367.164 141.652 370.686 138.761 374.808 137.054C378.929 135.347 383.465 134.9 387.84 135.77C392.215 136.641 396.234 138.789 399.389 141.943C402.543 145.098 404.691 149.117 405.562 153.492C406.432 157.868 405.985 162.403 404.278 166.524C402.571 170.646 399.68 174.168 395.971 176.647C392.262 179.125 387.901 180.448 383.44 180.448H360.884V157.893Z" fill="#3D348B" fill-opacity="0.3"/>
<path d="M497.956 106.183V117.982L534.045 105.659V90.221L497.956 106.183Z" fill="#6B32E5"/>
<path d="M497.956 118.506L497.956 106.183L534.045 118.506V133.944L497.956 118.506Z" fill="#6B31CC" fill-opacity="0.99"/>
<path d="M557.299 133.597H569.098L556.775 97.5081H541.337L557.299 133.597Z" fill="#6B32E5"/>
<path d="M569.622 133.597L557.299 133.597L569.622 97.5082H585.06L569.622 133.597Z" fill="#6B31CC" fill-opacity="0.99"/>
<path d="M647.52 133.597H659.319L646.996 97.5081H631.558L647.52 133.597Z" fill="#6B32E5"/>
<path d="M659.843 133.597L647.52 133.597L659.843 97.5082H675.281L659.843 133.597Z" fill="#6B31CC" fill-opacity="0.99"/>
<path d="M720.039 119.37V107.571L683.95 119.894V135.332L720.039 119.37Z" fill="#6B32E5"/>
<path d="M720.039 107.047L720.039 119.37L683.95 107.047V91.609L720.039 107.047Z" fill="#6B31CC" fill-opacity="0.99"/>
<path d="M766.89 112.777C766.89 117.238 765.567 121.599 763.089 125.308C760.61 129.017 757.088 131.908 752.966 133.615C748.845 135.322 744.31 135.769 739.934 134.899C735.559 134.028 731.54 131.88 728.385 128.726C725.231 125.571 723.083 121.552 722.212 117.177C721.342 112.802 721.789 108.266 723.496 104.145C725.203 100.023 728.094 96.5007 731.803 94.0223C735.513 91.5439 739.873 90.221 744.335 90.221H766.89V112.777Z" fill="#3D348B" fill-opacity="0.3"/>
<path d="M45.1111 202.998C45.1111 207.459 43.7883 211.82 41.3098 215.529C38.8314 219.238 35.3087 222.129 31.1872 223.836C27.0657 225.543 22.5305 225.99 18.1552 225.12C13.7798 224.249 9.76083 222.101 6.60638 218.947C3.45193 215.792 1.30372 211.773 0.43341 207.398C-0.436901 203.023 0.0097741 198.487 1.71695 194.366C3.42413 190.244 6.31513 186.722 10.0244 184.243C13.7336 181.765 18.0945 180.442 22.5556 180.442H45.1111V202.998Z" fill="#3D348B" fill-opacity="0.3"/>
<path d="M45.116 180.442C45.116 186.424 47.4924 192.161 51.7224 196.391C55.9523 200.621 61.6894 202.998 67.6715 202.998C73.6537 202.998 79.3907 200.621 83.6207 196.391C87.8507 192.161 90.2271 186.424 90.2271 180.442H45.116Z" fill="#4218B7" fill-opacity="0.3"/>
<path d="M106.183 223.818H117.982L105.659 187.729H90.221L106.183 223.818Z" fill="#6B32E5"/>
<path d="M118.506 223.818L106.183 223.818L118.506 187.729H133.944L118.506 223.818Z" fill="#6B31CC" fill-opacity="0.99"/>
<path d="M164.486 182.177H152.687L165.01 218.266H180.448L164.486 182.177Z" fill="#6B32E5"/>
<path d="M152.163 182.177L164.486 182.177L152.163 218.266H136.725L152.163 182.177Z" fill="#6B31CC" fill-opacity="0.99"/>
<path d="M225.553 270.669C225.553 264.687 223.177 258.95 218.947 254.72C214.717 250.49 208.98 248.114 202.998 248.114C197.015 248.114 191.278 250.49 187.048 254.72C182.818 258.95 180.442 264.687 180.442 270.669H225.553Z" fill="#4218B7" fill-opacity="0.3"/>
<path d="M272.398 196.404V208.203L308.487 195.88V180.442L272.398 196.404Z" fill="#6B32E5"/>
<path d="M272.398 208.727L272.398 196.404L308.487 208.727V224.165L272.398 208.727Z" fill="#6B31CC" fill-opacity="0.99"/>
<path d="M404.26 209.591V197.792L368.171 210.115V225.553L404.26 209.591Z" fill="#6B32E5"/>
<path d="M404.26 197.268L404.26 209.591L368.171 197.268V181.83L404.26 197.268Z" fill="#6B31CC" fill-opacity="0.99"/>
<path d="M435.149 182.177H423.35L435.673 218.266H451.111L435.149 182.177Z" fill="#6B32E5"/>
<path d="M422.826 182.177L435.149 182.177L422.826 218.266H407.388L422.826 182.177Z" fill="#6B31CC" fill-opacity="0.99"/>
<path d="M473.672 180.442C478.133 180.442 482.493 181.765 486.203 184.243C489.912 186.722 492.803 190.244 494.51 194.366C496.217 198.487 496.664 203.023 495.794 207.398C494.923 211.773 492.775 215.792 489.621 218.947C486.466 222.101 482.447 224.249 478.072 225.12C473.697 225.99 469.161 225.543 465.04 223.836C460.918 222.129 457.396 219.238 454.917 215.529C452.439 211.82 451.116 207.459 451.116 202.998V180.442H473.672Z" fill="#3D348B" fill-opacity="0.3"/>
<path d="M539.597 209.591V197.792L503.508 210.115V225.553L539.597 209.591Z" fill="#6B32E5"/>
<path d="M539.597 197.268L539.597 209.591L503.508 197.268V181.83L539.597 197.268Z" fill="#6B31CC" fill-opacity="0.99"/>
<path d="M631.553 202.998C631.553 207.459 630.23 211.82 627.752 215.529C625.273 219.238 621.751 222.129 617.629 223.836C613.508 225.543 608.973 225.99 604.597 225.12C600.222 224.249 596.203 222.101 593.048 218.947C589.894 215.792 587.746 211.773 586.875 207.398C586.005 203.023 586.452 198.487 588.159 194.366C589.866 190.244 592.757 186.722 596.466 184.243C600.176 181.765 604.537 180.442 608.998 180.442H631.553V202.998Z" fill="#3D348B" fill-opacity="0.3"/>
<path d="M631.558 248.114C631.558 243.652 632.881 239.292 635.359 235.582C637.838 231.873 641.36 228.982 645.482 227.275C649.603 225.568 654.139 225.121 658.514 225.991C662.889 226.862 666.908 229.01 670.063 232.164C673.217 235.319 675.365 239.338 676.236 243.713C677.106 248.089 676.659 252.624 674.952 256.745C673.245 260.867 670.354 264.389 666.645 266.868C662.936 269.346 658.575 270.669 654.114 270.669H631.558V248.114Z" fill="#3D348B" fill-opacity="0.3"/>
<path d="M720.039 209.591V197.792L683.95 210.115V225.553L720.039 209.591Z" fill="#6B32E5"/>
<path d="M720.039 197.268L720.039 209.591L683.95 197.268V181.83L720.039 197.268Z" fill="#6B31CC" fill-opacity="0.99"/>
<path d="M112.777 360.89C108.316 360.89 103.955 359.567 100.245 357.089C96.5361 354.61 93.6451 351.088 91.938 346.966C90.2308 342.845 89.7841 338.31 90.6544 333.934C91.5247 329.559 93.6729 325.54 96.8274 322.385C99.9818 319.231 104.001 317.083 108.376 316.212C112.752 315.342 117.287 315.789 121.408 317.496C125.53 319.203 129.052 322.094 131.531 325.803C134.009 329.513 135.332 333.873 135.332 338.335V360.89H112.777Z" fill="#3D348B" fill-opacity="0.3"/>
<path d="M225.553 270.663C219.571 270.663 213.834 273.039 209.604 277.269C205.374 281.499 202.998 287.236 202.998 293.219C202.998 299.201 205.374 304.938 209.604 309.168C213.834 313.398 219.571 315.774 225.553 315.774V270.663Z" fill="#4218B7" fill-opacity="0.3"/>
<path d="M286.625 314.039H298.424L286.101 277.95H270.663L286.625 314.039Z" fill="#6B32E5"/>
<path d="M298.948 314.039L286.625 314.039L298.948 277.95H314.386L298.948 314.039Z" fill="#6B31CC" fill-opacity="0.99"/>
<path d="M496.221 338.335C496.221 333.873 497.544 329.513 500.022 325.803C502.501 322.094 506.023 319.203 510.145 317.496C514.266 315.789 518.802 315.342 523.177 316.212C527.552 317.083 531.571 319.231 534.726 322.385C537.88 325.54 540.028 329.559 540.899 333.934C541.769 338.31 541.322 342.845 539.615 346.966C537.908 351.088 535.017 354.61 531.308 357.089C527.599 359.567 523.238 360.89 518.777 360.89H496.221V338.335Z" fill="#3D348B" fill-opacity="0.3"/>
<path d="M557.299 314.039H569.098L556.775 277.95H541.337L557.299 314.039Z" fill="#6B32E5"/>
<path d="M569.622 314.039L557.299 314.039L569.622 277.95H585.06L569.622 314.039Z" fill="#6B31CC" fill-opacity="0.99"/>
<path d="M608.998 315.774C604.537 315.774 600.176 314.451 596.466 311.973C592.757 309.494 589.866 305.972 588.159 301.85C586.452 297.729 586.005 293.194 586.875 288.818C587.746 284.443 589.894 280.424 593.048 277.269C596.203 274.115 600.222 271.967 604.597 271.096C608.973 270.226 613.508 270.673 617.629 272.38C621.751 274.087 625.273 276.978 627.752 280.687C630.23 284.397 631.553 288.757 631.553 293.219V315.774H608.998Z" fill="#3D348B" fill-opacity="0.3"/>
<path d="M721.779 293.219C721.779 288.757 723.102 284.397 725.58 280.687C728.059 276.978 731.581 274.087 735.703 272.38C739.824 270.673 744.36 270.226 748.735 271.096C753.11 271.967 757.129 274.115 760.284 277.269C763.438 280.424 765.586 284.443 766.457 288.818C767.327 293.194 766.88 297.729 765.173 301.85C763.466 305.972 760.575 309.494 756.866 311.973C753.157 314.451 748.796 315.774 744.335 315.774H721.779V293.219Z" fill="#3D348B" fill-opacity="0.3"/>
<path d="M15.9624 404.26H27.7607L15.4376 368.171H0L15.9624 404.26Z" fill="#6B32E5"/>
<path d="M28.2854 404.26L15.9624 404.26L28.2854 368.171H43.7231L28.2854 404.26Z" fill="#6B31CC" fill-opacity="0.99"/>
<path d="M164.486 362.619H152.687L165.01 398.708H180.448L164.486 362.619Z" fill="#6B32E5"/>
<path d="M152.163 362.619L164.486 362.619L152.163 398.708H136.725L152.163 362.619Z" fill="#6B31CC" fill-opacity="0.99"/>
<path d="M225.553 383.44C225.553 387.901 224.23 392.262 221.752 395.971C219.273 399.68 215.751 402.571 211.629 404.278C207.508 405.985 202.973 406.432 198.597 405.562C194.222 404.691 190.203 402.543 187.048 399.389C183.894 396.234 181.746 392.215 180.875 387.84C180.005 383.465 180.452 378.929 182.159 374.808C183.866 370.686 186.757 367.164 190.466 364.685C194.176 362.207 198.537 360.884 202.998 360.884H225.553V383.44Z" fill="#3D348B" fill-opacity="0.3"/>
<path d="M157.893 451.111C153.431 451.111 149.071 449.788 145.361 447.31C141.652 444.831 138.761 441.309 137.054 437.187C135.347 433.066 134.9 428.531 135.77 424.155C136.641 419.78 138.789 415.761 141.943 412.606C145.098 409.452 149.117 407.304 153.492 406.433C157.868 405.563 162.403 406.01 166.524 407.717C170.646 409.424 174.168 412.315 176.647 416.024C179.125 419.734 180.448 424.094 180.448 428.556V451.111H157.893Z" fill="#3D348B" fill-opacity="0.3"/>
<path d="M315.779 406C315.779 411.982 318.155 417.719 322.385 421.949C326.615 426.179 332.352 428.556 338.335 428.556C344.317 428.556 350.054 426.179 354.284 421.949C358.514 417.719 360.89 411.982 360.89 406H315.779Z" fill="#4218B7" fill-opacity="0.3"/>
<path d="M421.962 404.26H433.761L421.438 368.171H406L421.962 404.26Z" fill="#6B32E5"/>
<path d="M434.285 404.26L421.962 404.26L434.285 368.171H449.723L434.285 404.26Z" fill="#6B31CC" fill-opacity="0.99"/>
<path d="M496.227 360.884C490.245 360.884 484.508 363.26 480.278 367.49C476.048 371.72 473.672 377.457 473.672 383.44C473.672 389.422 476.048 395.159 480.278 399.389C484.508 403.619 490.245 405.995 496.227 405.995V360.884Z" fill="#4218B7" fill-opacity="0.3"/>
<path d="M584.713 390.033V378.234L548.624 390.557V405.995L584.713 390.033Z" fill="#6B32E5"/>
<path d="M584.713 377.71L584.713 390.033L548.624 377.71V362.272L584.713 377.71Z" fill="#6B31CC" fill-opacity="0.99"/>
<path d="M608.998 405.995C604.537 405.995 600.176 404.672 596.466 402.194C592.757 399.715 589.866 396.193 588.159 392.071C586.452 387.95 586.005 383.415 586.875 379.039C587.746 374.664 589.894 370.645 593.048 367.49C596.203 364.336 600.222 362.188 604.597 361.317C608.973 360.447 613.508 360.894 617.629 362.601C621.751 364.308 625.273 367.199 627.752 370.908C630.23 374.618 631.553 378.979 631.553 383.44V405.995H608.998Z" fill="#3D348B" fill-opacity="0.3"/>
<path d="M631.558 428.556C631.558 424.094 632.881 419.734 635.359 416.024C637.838 412.315 641.36 409.424 645.482 407.717C649.603 406.01 654.139 405.563 658.514 406.433C662.889 407.304 666.908 409.452 670.063 412.606C673.217 415.761 675.365 419.78 676.236 424.155C677.106 428.531 676.659 433.066 674.952 437.187C673.245 441.309 670.354 444.831 666.645 447.31C662.936 449.788 658.575 451.111 654.114 451.111H631.558V428.556Z" fill="#3D348B" fill-opacity="0.3"/>
<path d="M676.663 383.44C676.663 378.979 677.986 374.618 680.464 370.908C682.943 367.199 686.465 364.308 690.587 362.601C694.708 360.894 699.244 360.447 703.619 361.317C707.994 362.188 712.013 364.336 715.168 367.49C718.322 370.645 720.47 374.664 721.341 379.039C722.211 383.415 721.764 387.95 720.057 392.071C718.35 396.193 715.459 399.715 711.75 402.194C708.041 404.672 703.68 405.995 699.219 405.995H676.663V383.44Z" fill="#3D348B" fill-opacity="0.3"/>
<path d="M766.89 383.44C766.89 387.901 765.567 392.262 763.089 395.971C760.61 399.68 757.088 402.571 752.966 404.278C748.845 405.985 744.31 406.432 739.934 405.562C735.559 404.691 731.54 402.543 728.385 399.389C725.231 396.234 723.083 392.215 722.212 387.84C721.342 383.465 721.789 378.929 723.496 374.808C725.203 370.686 728.094 367.164 731.803 364.685C735.513 362.207 739.873 360.884 744.335 360.884H766.89V383.44Z" fill="#3D348B" fill-opacity="0.3"/>
<path d="M74.2647 452.851H62.4664L74.7895 488.94H90.2271L74.2647 452.851Z" fill="#6B32E5"/>
<path d="M61.9417 452.851L74.2647 452.851L61.9417 488.94H46.504L61.9417 452.851Z" fill="#6B31CC" fill-opacity="0.99"/>
<path d="M133.597 480.265V468.466L97.5081 480.789V496.227L133.597 480.265Z" fill="#6B32E5"/>
<path d="M133.597 467.942L133.597 480.265L97.5082 467.942V452.504L133.597 467.942Z" fill="#6B31CC" fill-opacity="0.99"/>
<path d="M45.116 541.332C51.0981 541.332 56.8352 538.956 61.0652 534.726C65.2952 530.496 67.6715 524.759 67.6715 518.777C67.6715 512.794 65.2952 507.057 61.0652 502.827C56.8352 498.597 51.0981 496.221 45.116 496.221V541.332Z" fill="#4218B7" fill-opacity="0.3"/>
<path d="M202.998 496.227C198.537 496.227 194.176 494.904 190.466 492.426C186.757 489.947 183.866 486.425 182.159 482.303C180.452 478.182 180.005 473.647 180.875 469.271C181.746 464.896 183.894 460.877 187.048 457.722C190.203 454.568 194.222 452.42 198.597 451.549C202.973 450.679 207.508 451.126 211.629 452.833C215.751 454.54 219.273 457.431 221.752 461.14C224.23 464.85 225.553 469.21 225.553 473.672V496.227H202.998Z" fill="#3D348B" fill-opacity="0.3"/>
<path d="M227.293 467.078V478.877L263.382 466.554V451.116L227.293 467.078Z" fill="#6B32E5"/>
<path d="M227.293 479.401L227.293 467.078L263.382 479.401V494.839L227.293 479.401Z" fill="#6B31CC" fill-opacity="0.99"/>
<path d="M248.114 496.221C252.575 496.221 256.936 497.544 260.645 500.022C264.354 502.501 267.245 506.023 268.952 510.145C270.659 514.266 271.106 518.802 270.236 523.177C269.365 527.552 267.217 531.571 264.063 534.726C260.908 537.88 256.889 540.028 252.514 540.899C248.139 541.769 243.603 541.322 239.482 539.615C235.36 537.908 231.838 535.017 229.359 531.308C226.881 527.599 225.558 523.238 225.558 518.777V496.221H248.114Z" fill="#3D348B" fill-opacity="0.3"/>
<path d="M299.812 452.851H288.013L300.336 488.94H315.774L299.812 452.851Z" fill="#6B32E5"/>
<path d="M287.489 452.851L299.812 452.851L287.489 488.94H272.051L287.489 452.851Z" fill="#6B31CC" fill-opacity="0.99"/>
<path d="M496.227 473.672C496.227 478.133 494.904 482.493 492.426 486.203C489.947 489.912 486.425 492.803 482.303 494.51C478.182 496.217 473.647 496.664 469.271 495.794C464.896 494.923 460.877 492.775 457.722 489.621C454.568 486.466 452.42 482.447 451.549 478.072C450.679 473.697 451.126 469.161 452.833 465.04C454.54 460.918 457.431 457.396 461.14 454.917C464.85 452.439 469.211 451.116 473.672 451.116H496.227V473.672Z" fill="#3D348B" fill-opacity="0.3"/>
<path d="M678.398 467.078V478.877L714.487 466.554V451.116L678.398 467.078Z" fill="#6B32E5"/>
<path d="M678.398 479.401L678.398 467.078L714.487 479.401V494.839L678.398 479.401Z" fill="#6B31CC" fill-opacity="0.99"/>
<path d="M721.779 473.672C721.779 469.21 723.102 464.85 725.58 461.14C728.059 457.431 731.581 454.54 735.703 452.833C739.824 451.126 744.36 450.679 748.735 451.549C753.11 452.42 757.129 454.568 760.284 457.722C763.438 460.877 765.586 464.896 766.457 469.271C767.327 473.647 766.88 478.182 765.173 482.303C763.466 486.425 760.575 489.947 756.866 492.426C753.157 494.904 748.796 496.227 744.335 496.227H721.779V473.672Z" fill="#3D348B" fill-opacity="0.3"/>
<path d="M721.774 518.777C721.774 523.238 720.451 527.599 717.973 531.308C715.494 535.017 711.972 537.908 707.85 539.615C703.729 541.322 699.194 541.769 694.818 540.899C690.443 540.028 686.424 537.88 683.269 534.726C680.115 531.571 677.967 527.552 677.096 523.177C676.226 518.802 676.673 514.266 678.38 510.145C680.087 506.023 682.978 502.501 686.687 500.022C690.397 497.544 694.758 496.221 699.219 496.221H721.774V518.777Z" fill="#3D348B" fill-opacity="0.3"/>
<path d="M766.89 496.221C760.908 496.221 755.171 498.597 750.941 502.827C746.711 507.057 744.335 512.794 744.335 518.777C744.335 524.759 746.711 530.496 750.941 534.726C755.171 538.956 760.908 541.332 766.89 541.332V496.221Z" fill="#4218B7" fill-opacity="0.3"/>
<path d="M43.376 570.486V558.687L7.28711 571.011V586.448L43.376 570.486Z" fill="#6B32E5"/>
<path d="M43.3761 558.163L43.376 570.486L7.28718 558.163L7.28718 542.725L43.3761 558.163Z" fill="#6B31CC" fill-opacity="0.99"/>
<path d="M88.492 570.486V558.687L52.4031 571.011V586.448L88.492 570.486Z" fill="#6B32E5"/>
<path d="M88.4921 558.163L88.492 570.486L52.4032 558.163V542.725L88.4921 558.163Z" fill="#6B31CC" fill-opacity="0.99"/>
<path d="M112.777 631.553C108.316 631.553 103.955 630.23 100.245 627.752C96.5361 625.273 93.6451 621.751 91.938 617.629C90.2308 613.508 89.7841 608.973 90.6544 604.597C91.5247 600.222 93.6729 596.203 96.8274 593.048C99.9818 589.894 104.001 587.746 108.376 586.875C112.752 586.005 117.287 586.452 121.408 588.159C125.53 589.866 129.052 592.757 131.531 596.466C134.009 600.176 135.332 604.537 135.332 608.998V631.553H112.777Z" fill="#3D348B" fill-opacity="0.3"/>
<path d="M157.893 586.448C153.431 586.448 149.071 585.125 145.361 582.647C141.652 580.168 138.761 576.646 137.054 572.524C135.347 568.403 134.9 563.868 135.77 559.492C136.641 555.117 138.789 551.098 141.943 547.943C145.098 544.789 149.117 542.641 153.492 541.77C157.868 540.9 162.403 541.347 166.524 543.054C170.646 544.761 174.168 547.652 176.647 551.361C179.125 555.071 180.448 559.432 180.448 563.893V586.448H157.893Z" fill="#3D348B" fill-opacity="0.3"/>
<path d="M225.553 541.337C219.571 541.337 213.834 543.713 209.604 547.943C205.374 552.173 202.998 557.91 202.998 563.893C202.998 569.875 205.374 575.612 209.604 579.842C213.834 584.072 219.571 586.448 225.553 586.448V541.337Z" fill="#4218B7" fill-opacity="0.3"/>
<path d="M254.707 543.072H242.908L255.231 579.161H270.669L254.707 543.072Z" fill="#6B32E5"/>
<path d="M242.384 543.072L254.707 543.072L242.384 579.161H226.946L242.384 543.072Z" fill="#6B31CC" fill-opacity="0.99"/>
<path d="M299.812 543.072H288.013L300.336 579.161H315.774L299.812 543.072Z" fill="#6B32E5"/>
<path d="M287.489 543.072L299.812 543.072L287.489 579.161H272.051L287.489 543.072Z" fill="#6B31CC" fill-opacity="0.99"/>
<path d="M360.89 563.893C360.89 568.354 359.567 572.715 357.089 576.424C354.61 580.133 351.088 583.024 346.966 584.731C342.845 586.438 338.31 586.885 333.934 586.015C329.559 585.144 325.54 582.996 322.385 579.842C319.231 576.687 317.083 572.668 316.212 568.293C315.342 563.918 315.789 559.382 317.496 555.261C319.203 551.139 322.094 547.617 325.803 545.138C329.513 542.66 333.873 541.337 338.335 541.337H360.89V563.893Z" fill="#3D348B" fill-opacity="0.3"/>
<path d="M449.376 570.486V558.687L413.287 571.011V586.448L449.376 570.486Z" fill="#6B32E5"/>
<path d="M449.376 558.163L449.376 570.486L413.287 558.163V542.725L449.376 558.163Z" fill="#6B31CC" fill-opacity="0.99"/>
<path d="M451.116 563.893C451.116 559.432 452.439 555.071 454.917 551.361C457.396 547.652 460.918 544.761 465.04 543.054C469.161 541.347 473.697 540.9 478.072 541.77C482.447 542.641 486.466 544.789 489.621 547.943C492.775 551.098 494.923 555.117 495.794 559.492C496.664 563.868 496.217 568.403 494.51 572.524C492.803 576.646 489.912 580.168 486.203 582.647C482.493 585.125 478.133 586.448 473.672 586.448H451.116V563.893Z" fill="#3D348B" fill-opacity="0.3"/>
<path d="M406 608.998C406 604.537 407.323 600.176 409.801 596.466C412.28 592.757 415.802 589.866 419.924 588.159C424.045 586.452 428.581 586.005 432.956 586.875C437.331 587.746 441.35 589.894 444.505 593.048C447.659 596.203 449.807 600.222 450.678 604.597C451.548 608.973 451.101 613.508 449.394 617.629C447.687 621.751 444.796 625.273 441.087 627.752C437.377 630.23 433.017 631.553 428.556 631.553H406V608.998Z" fill="#3D348B" fill-opacity="0.3"/>
<path d="M678.398 557.299V569.098L714.487 556.775V541.337L678.398 557.299Z" fill="#6B32E5"/>
<path d="M678.398 569.622L678.398 557.299L714.487 569.622V585.06L678.398 569.622Z" fill="#6B31CC" fill-opacity="0.99"/>
<path d="M789.44 631.553C784.979 631.553 780.618 630.23 776.908 627.752C773.199 625.273 770.308 621.751 768.601 617.629C766.894 613.508 766.447 608.973 767.317 604.597C768.188 600.222 770.336 596.203 773.49 593.048C776.645 589.894 780.664 587.746 785.039 586.875C789.415 586.005 793.95 586.452 798.071 588.159C802.193 589.866 805.715 592.757 808.194 596.466C810.672 600.176 811.995 604.537 811.995 608.998V631.553H789.44Z" fill="#3D348B" fill-opacity="0.3"/>
<path d="M1.73509 647.52V659.319L37.824 646.996V631.558L1.73509 647.52Z" fill="#6B32E5"/>
<path d="M1.73504 659.843L1.73509 647.52L37.8239 659.843V675.281L1.73504 659.843Z" fill="#6B31CC" fill-opacity="0.99"/>
<path d="M67.6715 631.558C72.1326 631.558 76.4935 632.881 80.2027 635.359C83.912 637.838 86.803 641.36 88.5102 645.482C90.2173 649.603 90.664 654.139 89.7937 658.514C88.9234 662.889 86.7752 666.908 83.6207 670.063C80.4663 673.217 76.4473 675.365 72.0719 676.236C67.6966 677.106 63.1614 676.659 59.0399 674.952C54.9184 673.245 51.3957 670.354 48.9173 666.645C46.4389 662.936 45.116 658.575 45.116 654.114V631.558H67.6715Z" fill="#3D348B" fill-opacity="0.3"/>
<path d="M137.072 647.52V659.319L173.161 646.996V631.558L137.072 647.52Z" fill="#6B32E5"/>
<path d="M137.072 659.843L137.072 647.52L173.161 659.843V675.281L137.072 659.843Z" fill="#6B31CC" fill-opacity="0.99"/>
<path d="M272.398 647.52V659.319L308.487 646.996V631.558L272.398 647.52Z" fill="#6B32E5"/>
<path d="M272.398 659.843L272.398 647.52L308.487 659.843V675.281L272.398 659.843Z" fill="#6B31CC" fill-opacity="0.99"/>
<path d="M480.265 633.293H468.466L480.789 669.382H496.227L480.265 633.293Z" fill="#6B32E5"/>
<path d="M467.942 633.293L480.265 633.293L467.942 669.382H452.504L467.942 633.293Z" fill="#6B31CC" fill-opacity="0.99"/>
<path d="M497.956 647.52V659.319L534.045 646.996V631.558L497.956 647.52Z" fill="#6B32E5"/>
<path d="M497.956 659.843L497.956 647.52L534.045 659.843V675.281L497.956 659.843Z" fill="#6B31CC" fill-opacity="0.99"/>
<path d="M518.777 676.663C523.238 676.663 527.599 677.986 531.308 680.464C535.017 682.943 537.908 686.466 539.615 690.587C541.322 694.708 541.769 699.244 540.899 703.619C540.028 707.994 537.88 712.013 534.726 715.168C531.571 718.322 527.552 720.47 523.177 721.341C518.802 722.211 514.266 721.764 510.145 720.057C506.023 718.35 502.501 715.459 500.022 711.75C497.544 708.041 496.221 703.68 496.221 699.219V676.663H518.777Z" fill="#3D348B" fill-opacity="0.3"/>
<path d="M584.713 660.707V648.908L548.624 661.232V676.669L584.713 660.707Z" fill="#6B32E5"/>
<path d="M584.713 648.384L584.713 660.707L548.624 648.384V632.946L584.713 648.384Z" fill="#6B31CC" fill-opacity="0.99"/>
<path d="M676.669 699.219C676.669 703.68 675.346 708.041 672.868 711.75C670.389 715.459 666.867 718.35 662.745 720.057C658.624 721.764 654.089 722.211 649.713 721.341C645.338 720.47 641.319 718.322 638.164 715.168C635.01 712.013 632.862 707.994 631.991 703.619C631.121 699.244 631.568 694.708 633.275 690.587C634.982 686.466 637.873 682.943 641.582 680.464C645.292 677.986 649.653 676.663 654.114 676.663H676.669V699.219Z" fill="#3D348B" fill-opacity="0.3"/>
<path d="M678.398 647.52V659.319L714.487 646.996V631.558L678.398 647.52Z" fill="#6B32E5"/>
<path d="M678.398 659.843L678.398 647.52L714.487 659.843V675.281L678.398 659.843Z" fill="#6B31CC" fill-opacity="0.99"/>
<path d="M766.89 721.774C766.89 715.792 764.514 710.055 760.284 705.825C756.054 701.595 750.317 699.219 744.335 699.219C738.352 699.219 732.615 701.595 728.385 705.825C724.155 710.055 721.779 715.792 721.779 721.774H766.89Z" fill="#4218B7" fill-opacity="0.3"/>
<path d="M15.9624 765.155H27.7607L15.4376 729.066H0L15.9624 765.155Z" fill="#6B32E5"/>
<path d="M28.2854 765.155L15.9624 765.155L28.2854 729.066H43.7231L28.2854 765.155Z" fill="#6B31CC" fill-opacity="0.99"/>
<path d="M133.597 750.928V739.129L97.5081 751.452V766.89L133.597 750.928Z" fill="#6B32E5"/>
<path d="M133.597 738.605L133.597 750.928L97.5082 738.605V723.167L133.597 738.605Z" fill="#6B31CC" fill-opacity="0.99"/>
<path d="M45.1111 789.44C45.1111 793.901 43.7883 798.262 41.3098 801.971C38.8314 805.68 35.3087 808.571 31.1872 810.278C27.0657 811.985 22.5305 812.432 18.1552 811.562C13.7798 810.691 9.76083 808.543 6.60638 805.389C3.45193 802.234 1.30372 798.215 0.43341 793.84C-0.436901 789.465 0.0097741 784.929 1.71695 780.808C3.42413 776.686 6.31513 773.164 10.0244 770.685C13.7336 768.207 18.0945 766.884 22.5556 766.884H45.1111V789.44Z" fill="#3D348B" fill-opacity="0.3"/>
<path d="M180.442 744.335C180.442 739.873 181.765 735.513 184.243 731.803C186.722 728.094 190.244 725.203 194.366 723.496C198.487 721.789 203.023 721.342 207.398 722.212C211.773 723.083 215.792 725.231 218.947 728.385C222.101 731.54 224.249 735.559 225.12 739.934C225.99 744.31 225.543 748.845 223.836 752.966C222.129 757.088 219.238 760.61 215.529 763.089C211.82 765.567 207.459 766.89 202.998 766.89H180.442V744.335Z" fill="#3D348B" fill-opacity="0.3"/>
<path d="M180.442 811.995C186.424 811.995 192.161 809.619 196.391 805.389C200.621 801.159 202.998 795.422 202.998 789.44C202.998 783.458 200.621 777.72 196.391 773.49C192.161 769.26 186.424 766.884 180.442 766.884V811.995Z" fill="#4218B7" fill-opacity="0.3"/>
<path d="M248.114 766.884C252.575 766.884 256.936 768.207 260.645 770.685C264.354 773.164 267.245 776.686 268.952 780.808C270.659 784.929 271.106 789.465 270.236 793.84C269.365 798.215 267.217 802.234 264.063 805.389C260.908 808.543 256.889 810.691 252.514 811.562C248.139 812.432 243.603 811.985 239.482 810.278C235.36 808.571 231.838 805.68 229.359 801.971C226.881 798.262 225.558 793.901 225.558 789.44V766.884H248.114Z" fill="#3D348B" fill-opacity="0.3"/>
<path d="M315.774 744.335C315.774 748.796 314.451 753.157 311.973 756.866C309.494 760.575 305.972 763.466 301.85 765.173C297.729 766.88 293.194 767.327 288.818 766.457C284.443 765.586 280.424 763.438 277.269 760.284C274.115 757.129 271.967 753.11 271.096 748.735C270.226 744.36 270.673 739.824 272.38 735.703C274.087 731.581 276.978 728.059 280.687 725.58C284.397 723.102 288.757 721.779 293.219 721.779H315.774V744.335Z" fill="#3D348B" fill-opacity="0.3"/>
<path d="M383.44 811.995C378.979 811.995 374.618 810.672 370.908 808.194C367.199 805.715 364.308 802.193 362.601 798.071C360.894 793.95 360.447 789.415 361.317 785.039C362.188 780.664 364.336 776.645 367.49 773.49C370.645 770.336 374.664 768.188 379.039 767.317C383.415 766.447 387.95 766.894 392.071 768.601C396.193 770.308 399.715 773.199 402.194 776.908C404.672 780.618 405.995 784.979 405.995 789.44V811.995H383.44Z" fill="#3D348B" fill-opacity="0.3"/>
<path d="M449.376 750.928V739.129L413.287 751.452V766.89L449.376 750.928Z" fill="#6B32E5"/>
<path d="M449.376 738.605L449.376 750.928L413.287 738.605V723.167L449.376 738.605Z" fill="#6B31CC" fill-opacity="0.99"/>
<path d="M584.713 750.928V739.129L548.624 751.452V766.89L584.713 750.928Z" fill="#6B32E5"/>
<path d="M584.713 738.605L584.713 750.928L548.624 738.605V723.167L584.713 738.605Z" fill="#6B31CC" fill-opacity="0.99"/>
<path d="M541.337 789.44C541.337 784.979 542.66 780.618 545.138 776.908C547.617 773.199 551.139 770.308 555.261 768.601C559.382 766.894 563.918 766.447 568.293 767.317C572.668 768.188 576.687 770.336 579.842 773.49C582.996 776.645 585.144 780.664 586.015 785.039C586.885 789.415 586.438 793.95 584.731 798.071C583.024 802.193 580.133 805.715 576.424 808.194C572.715 810.672 568.354 811.995 563.893 811.995H541.337V789.44Z" fill="#3D348B" fill-opacity="0.3"/>
<path d="M676.663 789.44C676.663 784.979 677.986 780.618 680.464 776.908C682.943 773.199 686.465 770.308 690.587 768.601C694.708 766.894 699.244 766.447 703.619 767.317C707.994 768.188 712.013 770.336 715.168 773.49C718.322 776.645 720.47 780.664 721.341 785.039C722.211 789.415 721.764 793.95 720.057 798.071C718.35 802.193 715.459 805.715 711.75 808.194C708.041 810.672 703.68 811.995 699.219 811.995H676.663V789.44Z" fill="#3D348B" fill-opacity="0.3"/>
<path d="M766.89 766.884C760.908 766.884 755.171 769.26 750.941 773.49C746.711 777.72 744.335 783.457 744.335 789.44C744.335 795.422 746.711 801.159 750.941 805.389C755.171 809.619 760.908 811.995 766.89 811.995V766.884Z" fill="#4218B7" fill-opacity="0.3"/>
</g>
</svg>
