<svg width="1279" height="176" viewBox="0 0 1279 176" fill="none" xmlns="http://www.w3.org/2000/svg">
<g clip-path="url(#clip0_16_117)">
<path d="M0 137.15L30.5778 141.765C61.1556 146.348 122.311 155.578 183.182 156.423C244.196 157.3 304.782 149.825 365.796 149.89C426.667 149.923 487.822 157.528 548.693 161.363C609.707 165.198 670.293 165.328 731.307 164.353C792.178 163.378 853.333 161.298 914.204 154.213C975.218 147.128 1035.8 134.973 1096.82 129.61C1157.69 124.248 1218.84 125.678 1249.42 126.36L1280 127.075V195.325H1249.42C1218.84 195.325 1157.69 195.325 1096.82 195.325C1035.8 195.325 975.218 195.325 914.204 195.325C853.333 195.325 792.178 195.325 731.307 195.325C670.293 195.325 609.707 195.325 548.693 195.325C487.822 195.325 426.667 195.325 365.796 195.325C304.782 195.325 244.196 195.325 183.182 195.325C122.311 195.325 61.1556 195.325 30.5778 195.325H0L0 137.15Z" fill="white"/>
</g>
<defs>
<clipPath id="clip0_16_117">
<rect width="1280" height="195" fill="white"/>
</clipPath>
</defs>
</svg>
